<?xml version="1.0" encoding="UTF-8"?>
<svg id="_Слой_1" data-name="Слой_1" xmlns="http://www.w3.org/2000/svg" version="1.1" viewBox="0 0 1366 264.3">
  <!-- Generator: Adobe Illustrator 30.0.0, SVG Export Plug-In . SVG Version: 2.1.1 Build 123)  -->
  <defs>
    <style>
      .st0 {
        fill: #fffdf8;
      }
    </style>
  </defs>
  <path class="st0" d="M91.6,69v48.3c0,23.9-25.1,43.4-49.3,43.4v45.3c46.8,0,90.3-36.2,94.3-82.1v82.1h45.3V69h-90.3Z"/>
  <path class="st0" d="M466.8,117.2c0,23.8-24.9,43.1-48.7,43.3v-91.6h-45.3v136.9h45.3c17.4-.1,34.4-5.3,49-14l2.4,14h42.9V69h-45.3l-.3,48.3Z"/>
  <polygon class="st0" points="1031.7 69 1031.2 69 1031.7 205.9 1077 205.9 1077 114.3 1122.4 114.3 1122.4 205.9 1167.7 205.9 1168.2 69 1167.7 69 1031.7 69"/>
  <path class="st0" d="M1278.3,69v48.3c0,23.5-18.6,42.5-41.9,43.3v-91.5h-45.3v136.9h45.3c15.2-.3,29.5-4.4,41.9-11.4l2.4,11.4h42.9V69h-45.3Z"/>
  <path class="st0" d="M775.3,114.8h0s0,0,0,0v-45.8h-45.3v136.9h45.3v-45.8c23.8.2,43,19.5,43,43.3v2.5h45.3c.1-29.6-11.3-52-29.3-68.3,18.3-16.3,29.8-40,29.8-66.4v-2.3h-45.3c0,4.5-.2,16.4-7.9,27.3-12.2,17.1-32.5,18.3-35.4,18.5Z"/>
  <path class="st0" d="M252,69h-41.8v45.3h42c9.5,0,14.9,1.9,21.7,5.1-38.4,14.6-64.1,47-63.3,86.5h45.3c-1.9-24.9,22.7-44.5,45.4-46.4v46.4h45.3v-48.1c0-49.1-45.6-88.8-94.6-88.8Z"/>
  <path class="st0" d="M942,67.8c-38.9,0-70.5,31.1-70.5,69.4s31.6,69.4,70.5,69.4,70.5-31.1,70.5-69.4-31.6-69.4-70.5-69.4ZM942,163.6c-16,0-28.9-11.8-28.9-26.3s12.9-26.3,28.9-26.3,28.9,11.8,28.9,26.3-13,26.3-28.9,26.3Z"/>
  <path class="st0" d="M442.8,47.4c13.8,0,25.1-10.9,25.7-24.6h-51.3c.6,13.7,11.9,24.6,25.7,24.6Z"/>
  <path class="st0" d="M674.9,69.1c-10,1.5-21.1,2.7-33.3,3.1-10,.4-19.3.2-27.9-.3.8-2.8,2-8.6.4-15.6-1.2-5.4-3.6-10.6-7-14.3-6,8.1-13.3,16.9-21.9,25.9-7,7.2-13.8,13.5-20.3,19-1.1-2.5-4.2-8.2-10.8-12.6-4.5-3.1-9.8-4.8-15.3-5.1.5,2.2.4,5.8,1.7,9.9,2.7,8.6-2,55.5-2,55.5-4.4,38.4,29,72,68.9,72s67.8-30.4,67.8-67.8-8.2-34.6-18.9-44.3c9.5-3.4,18-14.6,18.5-25.4ZM579.6,161l.2-46.4c12.9.6,23.1,10.8,23,23.3,0,12.5-10.3,22.6-23.2,23.1ZM624.3,161l.2-46.4c12.9.6,23.1,10.8,23,23.3,0,12.5-10.4,22.6-23.2,23.1Z"/>
</svg>