<?xml version="1.0" encoding="UTF-8"?>
<svg id="_Слой_1" data-name="Слой 1" xmlns="http://www.w3.org/2000/svg" viewBox="0 0 841.89 841.89">
  <defs>
    <style>
      .cls-1 {
        fill: #54af32;
      }

      .cls-2 {
        fill: #a6c833;
      }

      .cls-3 {
        fill: #6caa2e;
      }

      .cls-4 {
        fill: #e94190;
      }

      .cls-5 {
        fill: #fff;
      }

      .cls-6 {
        fill: #000100;
      }

      .cls-7 {
        fill: #653a8e;
      }

      .cls-8 {
        fill: #8d529b;
      }
    </style>
  </defs>
  <circle class="cls-6" cx="420.94" cy="420.94" r="420.94"/>
  <path class="cls-3" d="M420.94,675.29c-140.25,0-254.35-114.1-254.35-254.35s114.1-254.35,254.35-254.35,254.35,114.1,254.35,254.35-114.1,254.35-254.35,254.35ZM420.94,206.32c-118.34,0-214.62,96.28-214.62,214.62s96.28,214.62,214.62,214.62,214.63-96.28,214.63-214.62-96.28-214.62-214.63-214.62Z"/>
  <path class="cls-4" d="M420.94,818.49c-219.21,0-397.54-178.34-397.54-397.54S201.74,23.4,420.94,23.4s397.55,178.34,397.55,397.54-178.34,397.54-397.55,397.54ZM420.94,63.13c-197.3,0-357.82,160.52-357.82,357.82s160.52,357.82,357.82,357.82,357.82-160.52,357.82-357.82S618.25,63.13,420.94,63.13Z"/>
  <g>
    <path class="cls-5" d="M155.51,354.12l-55.21-15.53,4.41-2.4-6.66,23.69-12.03-3.38,15.56-55.31,12.03,3.38-6.66,23.69-2.54-4.25,55.21,15.53-4.1,14.58Z"/>
    <path class="cls-5" d="M162.77,322.98l-44.1-57.55,7.25-13.3,72.4,5.6-7.7,14.13-63.01-6.63,2.95-5.4,39.73,49.35-7.52,13.8ZM157.41,303.14l-8.36-8.98,16.39-30.09,12.12,2.08-20.15,36.99Z"/>
    <path class="cls-5" d="M210.46,246.07l-43.12-37.83,5.02-.26-16.23,18.5-9.39-8.24,37.89-43.19,9.39,8.24-16.23,18.5-.46-4.93,43.12,37.83-9.99,11.39Z"/>
    <path class="cls-5" d="M249.17,194.61l-57.21-27,13.16-9.75,44.07,22.61v14.14ZM235.67,216.62l-3.88-11.61c3.53-1.28,6.17-2.86,7.91-4.74,1.75-1.88,2.5-4.62,2.28-8.22l-.34-5.87.22-1.93-8.06-47.62,12.18-9.01,8.48,58.85c.83,5.36.61,10.08-.66,14.15-1.26,4.08-3.42,7.46-6.49,10.16-3.06,2.7-6.94,4.65-11.63,5.84Z"/>
    <path class="cls-5" d="M361.39,152.27l-7.16-65.87,59.94-6.52,7.17,65.87-15.06,1.64-6.19-56.93,3.86,3.1-36.7,3.99,3-3.85,6.2,56.93-15.05,1.64Z"/>
    <path class="cls-5" d="M433.95,145.98l10.42-65.43,14.96,2.38-6.8,42.72,38.12-37.73,14.21,2.26-10.42,65.43-14.95-2.38,6.76-42.53-37.99,37.56-14.31-2.28Z"/>
    <path class="cls-5" d="M506.45,159.72l26.53-60.72,26.28,11.48c5.43,2.38,9.73,5.3,12.89,8.79,3.16,3.48,5.09,7.34,5.79,11.57.7,4.23.06,8.6-1.91,13.11-2,4.57-4.78,8.02-8.34,10.35-3.57,2.33-7.71,3.53-12.43,3.61-4.72.07-9.79-1.07-15.22-3.45l-18.56-8.11,9.19-3.53-10.08,23.07-14.14-6.18ZM529.98,144.39l-3.5-9.48,17.78,7.77c4.28,1.87,7.92,2.36,10.93,1.47,3-.89,5.24-3.01,6.71-6.37,1.46-3.35,1.5-6.42.1-9.2-1.41-2.78-4.24-5.11-8.52-6.98l-17.78-7.77,9.33-3.88-15.05,34.44Z"/>
    <path class="cls-5" d="M589.47,206.79c-4.11-3.04-7.43-6.54-9.96-10.49-2.54-3.95-4.17-8.13-4.93-12.53-.75-4.4-.61-8.81.42-13.23,1.03-4.42,3.03-8.63,5.99-12.64,2.96-4.01,6.41-7.15,10.33-9.43,3.92-2.28,8.11-3.7,12.56-4.25,4.45-.55,8.93-.2,13.46,1.06,4.52,1.26,8.84,3.41,12.95,6.45,4.62,3.41,8.22,7.31,10.79,11.68,2.57,4.37,3.98,9.05,4.23,14.02l-13.39,1.4c-.24-3.39-1.09-6.46-2.56-9.19-1.47-2.73-3.52-5.08-6.16-7.03-2.49-1.84-5.08-3.11-7.78-3.81-2.7-.7-5.38-.85-8.02-.46-2.65.4-5.16,1.33-7.53,2.79-2.38,1.46-4.5,3.46-6.38,6-1.88,2.54-3.17,5.15-3.87,7.85-.7,2.7-.85,5.37-.45,8.02.4,2.65,1.32,5.16,2.79,7.53,1.46,2.38,3.43,4.48,5.92,6.32,2.64,1.95,5.49,3.22,8.56,3.79,3.06.58,6.25.48,9.57-.28l2.59,13.22c-4.83,1.22-9.72,1.25-14.67.1-4.96-1.15-9.77-3.46-14.44-6.91Z"/>
    <path class="cls-5" d="M616.51,227.19l51.94-41.15,9.4,11.87-33.91,26.86,53.6-2.01,8.93,11.28-51.94,41.15-9.4-11.87,33.76-26.75-53.39,1.97-8.99-11.35Z"/>
    <path class="cls-5" d="M660.91,285.99l61.01-25.84,6.02,14.21-61.01,25.84-6.02-14.21ZM678.62,327.83l61.01-25.84,5.98,14.12-61.01,25.84-5.98-14.12ZM691.46,288.47l11.94-5.06,12.63,29.81-11.94,5.06-12.63-29.81Z"/>
    <path class="cls-5" d="M687.12,354.81l65.29-11.27,7.96,46.08-12.33,2.03-5.94-34.42,4.03,2.76-56.43,9.74-2.57-14.92Z"/>
  </g>
  <g>
    <path class="cls-3" d="M219.44,595.36l11.18,9.67-15.45,17.86,37.07-1.37,2.7,15.33-35.26,1.02,1.95,46.38-16.01-1.97-2.9-43.88-1.12.04-17.73,20.48-12.55-10.53,48.11-53.03Z"/>
    <path class="cls-3" d="M271.74,640.96l16.5,8.46-20.05,39.31,40.79-28.9,19.4,10.84-31.98,64.51-14.99-8.36,22.28-44.74-49.46,30.8-16.1-8.37,33.61-63.56Z"/>
    <path class="cls-3" d="M388.67,694.99l-11.54,9.76c-.01-.27-.09-.63-.24-1.06-.15-.44-.58-1.29-1.3-2.55-.72-1.26-1.63-2.43-2.72-3.5-1.1-1.07-2.74-2.17-4.94-3.3-2.2-1.13-4.75-2-7.66-2.6-5.31-1.1-9.7.44-13.16,4.62-3.46,4.18-5.59,9.8-6.37,16.86-.76,6.59.16,11.66,2.73,15.2,2.57,3.54,7.08,6.04,13.53,7.51,2.45.57,4.73.71,6.85.41,2.12-.3,3.83-.88,5.11-1.73s2.42-1.73,3.38-2.64c.97-.91,1.66-1.73,2.08-2.46l.63-1.09,13.54,8.98c-.24.49-.58,1.11-1.04,1.86-.46.75-1.59,2.05-3.39,3.91s-3.86,3.4-6.18,4.65-5.52,2.2-9.61,2.87c-4.09.67-8.52.62-13.28-.16-6.14-1-11.7-3.42-16.68-7.25-4.98-3.83-8.72-8.74-11.23-14.73-2.51-5.99-3.13-12.22-1.85-18.71.83-4.35,1.83-8.19,2.99-11.53,1.16-3.34,2.75-6.52,4.76-9.55,2.01-3.03,4.34-5.42,7-7.16,2.65-1.74,5.93-2.96,9.81-3.64,3.89-.68,8.28-.62,13.17.19,4.7.77,8.81,1.89,12.32,3.36,3.51,1.47,6.07,2.95,7.69,4.43,1.62,1.48,2.89,2.92,3.81,4.33.93,1.41,1.44,2.52,1.53,3.35l.22,1.36Z"/>
    <path class="cls-3" d="M426.67,685.51l45.02-3.04,5.62,71.38-14.99.32-4.84-58.41-14.73,1.1c-.11.34-.07,1.01.14,2.03.2,1.01.2,2.97,0,5.86-.2,2.9-.5,5.95-.87,9.15-.38,3.21-1.17,7.2-2.37,11.99-1.2,4.79-2.7,9.59-4.49,14.42-1.8,4.76-4.04,8.59-6.73,11.49-2.69,2.9-5.3,4.71-7.83,5.45s-4.93,1.11-7.18,1.13-4.06-.22-5.42-.73l-2.04-.76-1.87-12.89c.2.05.46.15.76.3.31.15.93.28,1.87.42.94.13,1.9.16,2.89.05.99-.1,2.16-.44,3.51-1.03,1.35-.59,2.62-1.42,3.81-2.49,1.19-1.07,2.46-2.65,3.81-4.73,1.35-2.08,2.55-4.55,3.62-7.4,2.36-6.19,3.73-12.93,4.1-20.21.37-7.28.15-12.98-.66-17.1l-1.12-6.28Z"/>
    <path class="cls-3" d="M507.57,670.66l-.03-.09c.31-.11.75-.24,1.34-.39.58-.14,1.78-.41,3.61-.8,1.83-.39,3.65-.69,5.48-.9,1.83-.21,4.02-.32,6.59-.32,2.57,0,5.04.19,7.39.56,2.35.37,4.85,1.07,7.48,2.1,2.63,1.04,5.03,2.36,7.16,3.97,2.14,1.61,4.2,3.74,6.16,6.39,1.96,2.66,3.59,5.73,4.87,9.2,1.9,5.15,2.88,10.02,2.95,14.61.07,4.59-.56,8.53-1.88,11.84-1.32,3.3-3.2,6.32-5.65,9.05-2.45,2.73-5.09,4.94-7.92,6.62-2.83,1.68-5.89,3.05-9.16,4.11-5.92,1.9-11.01,3.05-15.26,3.45-4.26.41-8.37-.07-12.36-1.42-3.98-1.35-7.55-3.95-10.69-7.79s-6.06-9.04-8.75-15.59c-1.78-4.27-2.86-8.35-3.23-12.23-.37-3.88-.21-7.23.47-10.05s1.81-5.47,3.36-7.95c1.55-2.47,3.15-4.49,4.8-6.05,1.65-1.56,3.46-2.98,5.45-4.28,1.99-1.29,3.55-2.2,4.7-2.73,1.14-.53,2.18-.96,3.11-1.31ZM513.14,684.35c-.93.34-1.9.83-2.9,1.44-1.01.62-2.22,1.68-3.63,3.19-1.42,1.51-2.51,3.19-3.26,5.06-.75,1.87-1.08,4.33-.98,7.39.1,3.06.91,6.36,2.43,9.89,1.36,3.31,3.11,6.01,5.26,8.1,2.15,2.1,4.4,3.48,6.75,4.12,2.35.65,4.65.87,6.91.68,2.25-.19,4.44-.75,6.57-1.68,2.43-1.04,4.63-2.34,6.59-3.9,1.96-1.57,3.7-3.39,5.23-5.47s2.41-4.5,2.66-7.27c.25-2.77-.28-5.64-1.58-8.61-1.64-3.69-3.72-6.7-6.23-9.01-2.51-2.31-4.9-3.83-7.17-4.54-2.27-.72-4.67-1.07-7.2-1.05-2.53.01-4.47.2-5.82.56-1.35.36-2.55.73-3.6,1.11Z"/>
    <path class="cls-3" d="M548.44,654.03l38.52-26.76,9.19,12.82-12.93,9.02,33.18,45.06-14.75,10.39-31.83-46.23-12.28,8.57-9.1-12.88Z"/>
    <path class="cls-3" d="M640.85,669.56l-28.92-65.09,10.82-14.26,68.6,21.03-7.09,19.03-20.62-7.84-17.01,18.84,10.72,20.93-16.49,7.36ZM640.27,628.85l9.72-11.53-19.47-7.35,9.75,18.88Z"/>
  </g>
  <g>
    <path class="cls-7" d="M262.92,305.78c2.47-1.98-2.36-13.94,1.46-23.57,3.3-8.32,9.69-12.59,14.25-15.54,8.82-5.72,16.48-7.71,32.11-11.15,19.6-4.31,20.43-3.53,27.39-6.51,8.38-3.59,7.41-8.25,14.76-15.16,13.93-13.09,33.53-15.75,38.94-15.94,6.43-.23,24.23,1.05,39.15,13.56,15.45,12.95,17.3,29.99,17.72,34.08l11.28,8.89s18.15-18.06,50.11-11.15c0,0,35.62-19.89,69.93,8.56,16.44,13.63,17.28,29.59,14.94,40.84-1.65,7.89-6.06,14.93-12.34,19.98l-54.18,45.62s3.75,2.66,4.61,11.3c.85,8.48,20,.04,11.61,37.77-.42,1.87-.35,3.85.31,5.65,1.79,4.86,7.39,10.98,26.41,9.4,14.37-1.2,32.05,15.87,38.24,27.55,3.44,6.49,4.82,14.99,4.83,22.33.01,7.47-1.59,16.59-8.1,23.09,0,0,6.52,13.7-41.25,37.34-1.41.7-2.55,2.55-2.45,4.12.99,14.88-19.59,53.2-49.32,21.86-.98-1.03-2.45-1.41-3.82-1.02-6.98,2.05-29.55,5.54-50.69-25.34-1.28-1.87-3.07-3.35-5.17-4.23l-8.14-3.41c-1.04-.44-2.62,0-2.63,1.14-.08,10.14-20.79,48.77-63.18,24.15-1.08-.63-2.42-.59-3.43.13-11,7.8-73.89,49.4-91.14-6.5-.3-.99-.99-1.81-1.93-2.25-8.14-3.81-46.48-24.68-10.11-65.81.92-1.05,1.66-2.26,2.07-3.59,1.61-5.2,3.26-18.05-16.52-24.36-4.33-1.38-8.04-4.29-10.47-8.14-7-11.13-15.63-33.66,16.19-48.15,0,0,27.63-10.36-1.3-35.84-28.93-25.48-23.13-51.25-.17-69.7Z"/>
    <circle class="cls-7" cx="293.39" cy="243.04" r="9.49"/>
    <circle class="cls-7" cx="255.55" cy="487.27" r="8.81"/>
    <circle class="cls-7" cx="451.64" cy="583.64" r="13.15"/>
    <circle class="cls-7" cx="582.46" cy="397.95" r="24.55"/>
    <path class="cls-7" d="M506.83,240.1c0,8.46-6.86,15.32-15.32,15.32s-15.32-6.86-15.32-15.32,6.86-15.32,15.32-15.32,15.32,6.86,15.32,15.32Z"/>
    <path class="cls-8" d="M457.11,578.07c0,2.14-2.28,3.87-5.1,3.87s-5.1-1.73-5.1-3.87,2.28-3.87,5.1-3.87,5.1,1.73,5.1,3.87Z"/>
    <path class="cls-8" d="M579.87,380.3c-2.47,2.53-2.38,8.01.79,11.3,2.6,2.7,7.18,3.84,10.64,1.58,3-1.97,4.2-5.88,3.28-8.8-1.74-5.52-11.11-7.77-14.71-4.07Z"/>
    <path class="cls-8" d="M493.78,229.62c-2.43-.3-5.59-.69-6.35.54-.92,1.49,1.7,5.25,4.86,7.3,3.14,2.03,8.12,3.23,9.46,1.42,1.38-1.88-1.17-7-4.8-8.58-.9-.39-1.69-.49-3.18-.68Z"/>
    <path class="cls-8" d="M289.75,236.8c.73-.98,2.33-.82,3.98-.65,1.88.19,3.38.35,4.27,1.58.06.09.98,1.41.49,2.56-.69,1.62-3.64,1.72-5.48,1.22-.35-.1-3.09-.85-3.53-2.88-.04-.18-.24-1.12.28-1.83Z"/>
    <path class="cls-8" d="M254.06,481.42c-1.04.98-.8,3.1.03,4.45.9,1.48,3.02,2.89,4.73,2.04,1.53-.77,1.99-2.97,1.41-4.48-.94-2.44-4.72-3.37-6.16-2.01Z"/>
    <path class="cls-6" d="M291.64,555.82c.9,4.76,2.44,12.26,8.93,18.26,5.76,5.32,12.46,6.71,15.9,7.09,6.71.74,11.95-1.18,14.85-2.23,24.59-8.95,36.88-13.42,43.88-14.98,6.58-1.46,16.73-3.1,28.9-8.15,2.88-1.19,6.28-2.74,9.07-6.17,4.68-5.76,4.71-13.2,4.73-16.95.02-5.58-1.13-9.75-1.45-10.9-1.93-7.07-4.34-18.54-6.7-38.23,16.05,16.12,27.47,29.19,35.08,38.36,17.21,20.75,25.81,31.12,26.8,32.71.6.98,2.88,4.76,7.09,8.67,1.66,1.54,3.2,2.98,5.39,4.2,7.45,4.19,15.93,2.37,20.23,1.45,2.25-.48,5.6-1.4,9.46-3.28.81,2.04,3.86,8.97,11.43,12.61,1.44.69,4.91,2.31,9.46,2.1,9.52-.44,15.41-8.5,16.68-10.25,7.16-9.8,4.79-21.23,4.34-23.25,13.97-8.96,24.11-15.06,31.53-18.92,1.8-.94,5.65-2.89,8.67-7.09,3.54-4.93,3.95-10.18,4.07-12.09.56-8.52-3.44-14.83-4.99-17.21-4.34-6.65-9.99-9.91-13.4-11.96-10.61-6.37-19.69-15.05-30.22-21.55-11.53-7.12-29.94-21.3-59.78-52.55,13.02-12.15,30.36-28.46,49-46.38,33.21-31.91,30.06-30.02,32.19-31.4,2.18-1.41,7.31-4.57,10.77-10.77,5.24-9.38,3.02-19.14,2.76-20.23-2.23-9.18-8.9-16.34-16.03-19.18-2.84-1.13-5.96-1.66-10.12-2.36-5.69-.96-10.01-1.12-11.56-1.18-17.51-.71-34.94-2.67-52.42-3.94-1.09-.08-4.77-.35-9.59.13-3.07.3-7.4.73-11.56,2.63-5.48,2.49-8.55,6.55-9.72,8.01-5.94,7.46-27.68,29.76-58.59,60.83.06-19.77,2.02-32.18,3.94-40.07,1.67-6.85,2.16-13.5,3.15-26.8.08-1.08.21-3.03-.26-5.52-1.53-8.04-7.73-12.94-9.85-14.45-6.16-4.38-12.53-4.72-16.03-4.86-5.52-.22-9.68.96-11.43,1.45-11,3.03-22.46,4.02-33.63,6.31-16.04,3.28-31.81,7.92-47.95,10.64-1.54.26-6.32,1.05-11.56,4.07-2.72,1.57-8.82,5.2-11.56,12.22-.71,1.82-1.47,4.56-1.18,10.77.53,11.55,3.96,20.21,4.07,20.49,2.1,5.3,4.12,21.36,8.15,53.47,4.1,32.64,6.29,50.1,7.75,74.75,3.09,52.04,4.63,78.06,1.45,94.2-.33,1.66-1.79,8.72-.13,17.47Z"/>
    <path class="cls-2" d="M293.96,297.82c-.3-1.14-1.14-3.34-.13-5.22.96-1.79,3.01-2.4,4.02-2.68,4.44-1.25,18.42-4.72,37.35-9.1l38.55-7.5s16.6-4.42,15.93,3.08c-.67,7.5-4.55,37.35-6.43,59.57-1.87,22.22-.67,46.18-.67,46.18,0,0-.54,8.57,6.56,1.2,7.09-7.36,74.96-71.62,85.94-83.8,10.98-12.18,29.98-8.57,29.98-8.57l50.2,4.42s10.31,4.42-1.34,13.52c-11.65,9.1-31.59,29.72-31.59,29.72,0,0-1.74,5.89-.4,10.17,1.34,4.28,4.28,10.17,1.47,11.51-2.81,1.34-7.5.8-7.36-6.02s-.94-9.37-.94-9.37l-51.67,48.46s-9.24,6.56-6.69,8.97,44.71,40.43,44.71,40.43c0,0,43.5,38.55,67.87,52.61,0,0,11.24,8.43-.13,12.72-11.38,4.28-29.85,16.06-29.85,16.06,0,0-4.69,11.51.94,22.22,5.62,10.71-6.69,14.86-6.69,14.86,0,0-12.05,3.48-6.29-18.74,5.76-22.22-24.5-.8-24.5-.8,0,0-7.9,4.55-15.66-7.36-7.76-11.91-67.33-76.3-81.12-87.68-13.79-11.38-22.89-14.86-22.89-14.86,0,0,0,23.02,4.02,53.01,4.02,29.99,6.43,34.8,6.43,34.8,0,0,4.95,12.18-5.22,13.52-10.17,1.34-40.43,9.5-61.98,18.61,0,0-12.32,6.29-12.18-10.71.13-17-1.87-100.4-4.68-123.42-2.81-23.02-9.5-97.18-15.53-119.81Z"/>
    <path class="cls-1" d="M468.78,468.76c40.16,59.84,38.02,36.01,38.02,36.01,0,0-6.43-22.35,11.65-8.43,11.43,8.81,18.47,5.18,22.1,1.33,2.06-2.18,1.88-5.64-.33-7.66-11.46-10.51-49.3-44.96-71.71-62.07-26.64-20.35-21.02-34.27-21.02-34.27,0,0,82.46-78.18,89.42-82.86,6.96-4.69,1.74-5.49,1.74-5.49l-47.35-1.37c-2.16-.06-4.26.73-5.83,2.22-14.37,13.55-87.41,82.37-98.75,91.66-12.58,10.31-14.19-22.35-14.19-22.35,0,0-.4-58.63,2.81-75.1,3.21-16.46-5.89-14.32-5.89-14.32,0,0-64.52,5.76-61.17,21.69,3.35,15.93,11.24,109.63,11.24,109.63.98,9.99,1.4,18.02,1.61,23.56.19,5.15,1.11,10.84,2.94,22.22.65,4.01,1.37,8.06,5.92,9.57,1.4.46,2.92.54,4.38.29,7.89-1.37,7.63-9.69,7.5-13.74-.16-5.29-1.91-5.5-2.28-10.84-.12-1.77-.69-10.21,4.55-14.59,1.58-1.32,4.58-3.01,6.69-2.01,1.65.79,1.41,2.58,3.08,4.95,1.7,2.41,4.84,4.64,7.76,4.82,3.85.24,6.87-3.08,12.45-9.24,4.89-5.39,4.72-6.66,7.76-8.57.67-.42,6.34-3.86,12.85-2.54,4.17.84,5.34,2.96,14.86,11.38,10.3,9.1,12.43,9.72,14.19,9.91,3,.31,6.91-1.44,14.59-4.95,9.24-4.23,10.88-5.95,13.39-5.22,4.66,1.37,2.47,10.5,5.55,14.82,1.52,2.12,3.02,4.26,4.16,6.61l7.29,14.98Z"/>
    <path class="cls-1" d="M326.36,499.82s12.98,21.55,28.91-14.99c0,0,11.65-16.6,16.73-6.29,5.09,10.31,8.83,41.63,8.83,41.63,0,0-1.07,3.75-19.68,6.16-14.09,1.82-24.87,7.18-29.28,9.67-1.38.78-3.11.17-3.69-1.3-1.54-3.92-3.49-13.31-1.83-34.87Z"/>
  </g>
</svg>