<?xml version="1.0" encoding="UTF-8"?>
<svg id="_Слой_1" data-name="Слой 1" xmlns="http://www.w3.org/2000/svg" viewBox="0 0 841.89 841.89">
  <defs>
    <style>
      .cls-1 {
        fill: #6caa2e;
      }

      .cls-2 {
        fill: #e94190;
      }

      .cls-3 {
        fill: #fff;
      }

      .cls-4 {
        fill: #87bc2b;
      }

      .cls-5 {
        fill: #000100;
      }

      .cls-6 {
        fill: #030404;
      }

      .cls-7 {
        fill: #4a2777;
      }

      .cls-8 {
        fill: #cdd958;
      }
    </style>
  </defs>
  <circle class="cls-5" cx="420.94" cy="420.94" r="397.54"/>
  <path class="cls-1" d="M420.94,661.16c-132.45,0-240.21-107.76-240.21-240.21s107.76-240.21,240.21-240.21,240.21,107.76,240.21,240.21-107.76,240.21-240.21,240.21ZM420.94,218.25c-111.76,0-202.69,90.93-202.69,202.69s90.93,202.69,202.69,202.69,202.69-90.93,202.69-202.69-90.93-202.69-202.69-202.69Z"/>
  <path class="cls-2" d="M420.94,796.39c-207.02,0-375.44-168.42-375.44-375.44S213.93,45.5,420.94,45.5s375.44,168.42,375.44,375.44-168.42,375.44-375.44,375.44ZM420.94,83.02c-186.33,0-337.93,151.59-337.93,337.93s151.59,337.93,337.93,337.93,337.93-151.59,337.93-337.93S607.28,83.02,420.94,83.02Z"/>
  <g>
    <path class="cls-3" d="M170.42,357.73l-52.15-14.67,4.17-2.26-6.29,22.37-11.36-3.2,14.69-52.24,11.36,3.2-6.29,22.37-2.4-4.02,52.15,14.67-3.87,13.77Z"/>
    <path class="cls-3" d="M177.28,328.33l-41.65-54.35,6.85-12.56,68.38,5.29-7.27,13.34-59.5-6.26,2.78-5.1,37.52,46.6-7.1,13.03ZM172.22,309.58l-7.9-8.48,15.48-28.42,11.45,1.96-19.03,34.93Z"/>
    <path class="cls-3" d="M222.32,255.69l-40.72-35.72,4.73-.25-15.33,17.47-8.87-7.78,35.79-40.79,8.87,7.78-15.33,17.47-.43-4.66,40.72,35.72-9.43,10.75Z"/>
    <path class="cls-3" d="M258.88,207.09l-54.03-25.5,12.43-9.2,41.62,21.35v13.36ZM246.12,227.88l-3.67-10.96c3.33-1.21,5.83-2.7,7.47-4.48,1.65-1.78,2.37-4.36,2.15-7.76l-.32-5.55.21-1.82-7.61-44.98,11.49-8.51,8.01,55.58c.78,5.06.57,9.51-.62,13.36-1.19,3.85-3.24,7.05-6.13,9.6-2.9,2.55-6.56,4.39-10.99,5.52Z"/>
    <path class="cls-3" d="M364.86,167.1l-6.77-62.21,56.61-6.16,6.76,62.21-14.22,1.55-5.85-53.77,3.65,2.93-34.66,3.77,2.84-3.64,5.85,53.77-14.22,1.54Z"/>
    <path class="cls-3" d="M433.39,161.16l9.84-61.8,14.12,2.25-6.42,40.35,36-35.63,13.42,2.13-9.84,61.8-14.13-2.25,6.39-40.17-35.88,35.48-13.5-2.15Z"/>
    <path class="cls-3" d="M501.85,174.14l25.05-57.34,24.82,10.85c5.13,2.24,9.19,5.01,12.18,8.3,2.99,3.29,4.81,6.93,5.47,10.92.66,3.99.06,8.12-1.8,12.38-1.89,4.31-4.51,7.57-7.89,9.77-3.36,2.2-7.28,3.34-11.73,3.41-4.45.07-9.25-1.01-14.38-3.26l-17.53-7.66,8.67-3.33-9.52,21.79-13.35-5.83ZM524.08,159.66l-3.31-8.96,16.79,7.34c4.04,1.76,7.48,2.23,10.32,1.38,2.84-.84,4.95-2.84,6.33-6.01s1.41-6.06.09-8.69c-1.32-2.63-4-4.82-8.05-6.59l-16.79-7.34,8.82-3.66-14.21,32.52Z"/>
    <path class="cls-3" d="M580.27,218.6c-3.88-2.87-7.02-6.17-9.41-9.9-2.39-3.73-3.94-7.68-4.65-11.83-.71-4.15-.57-8.32.4-12.49.97-4.17,2.85-8.15,5.66-11.94,2.8-3.78,6.05-6.76,9.75-8.91,3.7-2.15,7.66-3.49,11.86-4.02,4.2-.52,8.44-.19,12.71,1,4.27,1.19,8.34,3.22,12.23,6.09,4.36,3.22,7.76,6.9,10.19,11.04,2.43,4.13,3.76,8.54,4,13.23l-12.65,1.32c-.23-3.2-1.03-6.1-2.42-8.68-1.39-2.58-3.33-4.79-5.82-6.63-2.35-1.74-4.8-2.94-7.35-3.6-2.55-.67-5.07-.81-7.58-.43-2.5.38-4.87,1.25-7.11,2.64-2.24,1.38-4.25,3.27-6.03,5.66-1.77,2.4-2.98,4.87-3.65,7.42-.66,2.55-.8,5.08-.43,7.58.37,2.5,1.25,4.87,2.63,7.12,1.38,2.24,3.25,4.23,5.59,5.97,2.49,1.84,5.19,3.04,8.08,3.58,2.89.55,5.91.46,9.04-.26l2.44,12.48c-4.55,1.15-9.17,1.18-13.85.1s-9.22-3.26-13.63-6.52Z"/>
    <path class="cls-3" d="M605.8,237.86l49.05-38.86,8.88,11.21-32.02,25.37,50.62-1.9,8.44,10.65-49.05,38.86-8.88-11.21,31.88-25.26-50.42,1.85-8.49-10.72Z"/>
    <path class="cls-3" d="M647.72,293.39l57.62-24.41,5.68,13.42-57.62,24.4-5.68-13.41ZM664.46,332.9l57.62-24.41,5.65,13.34-57.62,24.4-5.65-13.33ZM676.58,295.73l11.28-4.78,11.92,28.15-11.28,4.78-11.92-28.15Z"/>
    <path class="cls-3" d="M672.48,358.39l61.66-10.65,7.51,43.52-11.64,1.92-5.61-32.51,3.81,2.61-53.29,9.2-2.43-14.09Z"/>
  </g>
  <g>
    <path class="cls-1" d="M227.01,581.47l10.37,9.35-14.93,16.56,35.02-.56,2.25,14.53-33.31.26.92,43.83-15.07-2.18-1.87-41.49-1.06.02-17.15,18.98-11.64-10.19,46.48-49.12Z"/>
    <path class="cls-1" d="M275.52,625.58l15.41,8.32-19.72,36.71,39.09-26.47,18.1,10.62-31.48,60.27-13.99-8.19,21.93-41.8-47.31,28.09-15.03-8.22,33-59.34Z"/>
    <path class="cls-1" d="M384.83,678.95l-11.09,8.99c0-.26-.07-.59-.2-1.01-.13-.41-.52-1.23-1.17-2.43s-1.48-2.33-2.49-3.36c-1.01-1.03-2.54-2.11-4.6-3.22-2.05-1.11-4.44-1.98-7.19-2.61-4.99-1.15-9.16.22-12.51,4.09-3.36,3.88-5.48,9.14-6.36,15.79-.85,6.21-.09,11.01,2.27,14.4,2.36,3.39,6.57,5.85,12.63,7.36,2.3.59,4.45.76,6.46.52,2.01-.24,3.64-.75,4.87-1.52,1.23-.77,2.32-1.58,3.25-2.43.93-.85,1.6-1.6,2.01-2.28l.62-1.01,12.6,8.75c-.24.46-.57,1.04-1.02,1.74-.45.7-1.54,1.9-3.28,3.62-1.74,1.72-3.72,3.14-5.93,4.26-2.21,1.13-5.25,1.96-9.13,2.52-3.87.55-8.05.41-12.54-.42-5.77-1.07-10.98-3.46-15.6-7.18-4.62-3.72-8.06-8.43-10.31-14.13-2.25-5.7-2.7-11.61-1.37-17.7.87-4.09,1.89-7.7,3.06-10.83,1.17-3.13,2.73-6.1,4.69-8.92,1.96-2.82,4.21-5.02,6.76-6.62,2.54-1.6,5.65-2.67,9.34-3.24,3.68-.57,7.83-.42,12.43.45,4.42.82,8.28,1.97,11.56,3.42,3.28,1.46,5.68,2.9,7.17,4.33,1.5,1.43,2.67,2.82,3.51,4.17.84,1.34,1.3,2.41,1.38,3.2l.19,1.29Z"/>
    <path class="cls-1" d="M420.86,670.77l42.57-1.97,3.88,67.51h-14.16s-3.4-55.25-3.4-55.25l-13.93.74c-.11.32-.08.96.09,1.92.17.96.13,2.8-.12,5.53-.25,2.73-.58,5.61-1.01,8.63-.42,3.02-1.25,6.77-2.47,11.27-1.23,4.5-2.74,9-4.53,13.52-1.8,4.46-3.99,8.03-6.58,10.71-2.59,2.69-5.1,4.35-7.5,4.99-2.41.64-4.68.95-6.8.93-2.13-.03-3.83-.3-5.1-.8l-1.91-.76-1.5-12.21c.19.05.43.15.72.29.29.14.87.29,1.76.43s1.79.18,2.73.11c.93-.07,2.04-.38,3.33-.9,1.29-.53,2.5-1.29,3.65-2.28,1.14-.99,2.37-2.45,3.68-4.39,1.32-1.93,2.51-4.24,3.57-6.91,2.36-5.8,3.78-12.13,4.28-19,.5-6.86.4-12.25-.28-16.16l-.93-5.96Z"/>
    <path class="cls-1" d="M497.56,658.35l-.03-.09c.3-.1.72-.21,1.27-.34.55-.12,1.69-.35,3.43-.68,1.73-.33,3.46-.58,5.19-.75,1.72-.16,3.8-.22,6.23-.17,2.43.06,4.75.28,6.96.67,2.22.39,4.56,1.1,7.03,2.13,2.47,1.03,4.7,2.33,6.69,3.89,1.99,1.56,3.88,3.61,5.69,6.16,1.8,2.55,3.27,5.47,4.41,8.78,1.69,4.9,2.52,9.51,2.49,13.85s-.69,8.05-2.01,11.14c-1.31,3.09-3.15,5.91-5.51,8.44-2.36,2.53-4.9,4.56-7.61,6.09-2.71,1.53-5.62,2.76-8.73,3.7-5.63,1.68-10.46,2.66-14.48,2.96-4.02.3-7.9-.23-11.64-1.59-3.73-1.35-7.05-3.88-9.94-7.57-2.89-3.69-5.54-8.65-7.95-14.89-1.6-4.07-2.54-7.94-2.81-11.61-.28-3.67-.06-6.83.64-9.48.7-2.65,1.81-5.13,3.33-7.44s3.07-4.18,4.65-5.61,3.33-2.75,5.23-3.93c1.91-1.18,3.4-2.01,4.49-2.49s2.08-.87,2.96-1.17ZM502.55,671.39c-.88.3-1.81.74-2.77,1.3s-2.13,1.54-3.49,2.94c-1.37,1.4-2.43,2.96-3.18,4.71-.75,1.75-1.11,4.07-1.07,6.96.04,2.89.74,6.02,2.09,9.38,1.22,3.15,2.82,5.73,4.8,7.76,1.98,2.02,4.08,3.36,6.29,4.02,2.21.66,4.38.92,6.51.78,2.13-.14,4.21-.62,6.24-1.45,2.32-.93,4.42-2.12,6.3-3.56,1.88-1.44,3.56-3.13,5.04-5.06,1.48-1.93,2.36-4.2,2.65-6.81.29-2.61-.15-5.33-1.32-8.16-1.48-3.52-3.38-6.4-5.7-8.63-2.32-2.24-4.55-3.71-6.67-4.44-2.13-.72-4.39-1.1-6.78-1.13s-4.22.1-5.51.41c-1.28.31-2.42.64-3.42.98Z"/>
    <path class="cls-1" d="M536.4,643.3l37.11-24.19,8.32,12.36-12.46,8.16,30.07,43.45-14.22,9.4-28.76-44.52-11.83,7.75-8.23-12.41Z"/>
    <path class="cls-1" d="M623.42,660.02l-26.01-62.03,10.5-13.25,64.35,21.21-7.08,17.83-19.32-7.81-16.43,17.45,9.7,19.98-15.72,6.63ZM623.69,621.58l9.4-10.7-18.23-7.33,8.83,18.02Z"/>
  </g>
  <g>
    <g>
      <circle class="cls-7" cx="271.68" cy="317.06" r="12.7"/>
      <path class="cls-7" d="M280.91,463.34c0-6.6-5.35-11.95-11.95-11.95s-11.95,5.35-11.95,11.95,5.35,11.95,11.95,11.95,11.95-5.35,11.95-11.95Z"/>
      <circle class="cls-7" cx="565.61" cy="298.46" r="16.43" transform="translate(180.41 808.95) rotate(-80.78)"/>
      <path class="cls-7" d="M591.4,433.7c-2.38-9.41-8.64-17.72-17.08-22.5-9.89-5.2-20.44-11.77-16.06-23.94,3.25-7.95,10.04-14.72,12.42-23.22,4.24-12.45.43-27.18-9.73-35.53-6.86-6.24-16.85-5.5-24.58-9.67-4.27-2.33-7.23-6.27-10.22-10.02-3.64-4.58-7.75-8.66-11.24-13.13-3.79-4.75-6.54-10.11-10.22-15.12-14.31-19.32-38.36-32.16-62.58-31.29-11.64.29-22.8,2.97-33.75,7.37-6.93,2.82-13.45,6.47-20.32,9.44-9.48,4.12-19.52,7.4-28.77,12.12-4.23,2.09-8.31,4.46-12.39,6.83-2.73,1.5-6.55,3.9-9.48,3.53-7.06-1.17-3.9-14.48-13.48-22.26-3.5-3.12-8.06-4.91-12.69-5.47-27.77-2.46-37.82,35.25-11.77,46.43,3.28,1.58,7.63,2.04,9.57,5.01,2,4.98-8.04,17.69-12.12,21.37-5.03,4.63-11.6,7.52-17.2,11.92-8.01,6.13-13.78,14.96-17.69,24.11-6.95,15.84-5.26,35.59,4.17,49.99,5.14,8.2,13.55,13.87,19.7,21,6.77,8.26,4.18,19.63,4.69,29.48.29,6.97-1.78,12.39-6.43,17.45-4.45,4.94-8.71,10.3-10.22,16.98-4.55,16.63,5.41,34.2,23.1,35.8,7.74.96,15.33-1.79,21.53-6.28,3.16-2.16,6.47-4.68,10.05-5.8,7.56-2.54,14.37,2.82,18.41,9.23,3.27,5.42,4.26,11.71,5.18,17.99,1.96,18.05,20.24,30.98,37.86,27.04,20.76-5.22,14.49-19.85,42.28-16.26,9.12.87,13.35,10.33,20.01,15.39,10.63,8.26,26.34,8.55,37.16.34,8.66-6.51,13.33-16.83,14.73-27.31.86-5.47-.29-12.11.45-17.02.47-3.41,2.4-6.27,4.9-8.58,5.52-4.58,12.07-8.93,14.44-16.07,1.5-3.88,1.98-8.16,3.48-11.91,3.29-8.69,11.41-15.02,20.04-17.9,5.62-1.8,11.76-1.96,17.48-3.5,19.21-4.96,31.34-26.95,26.4-45.93l-.04-.13Z"/>
      <circle class="cls-7" cx="583.13" cy="387.85" r="13.87" transform="translate(1.65 778.16) rotate(-67.5)"/>
      <circle class="cls-7" cx="363.77" cy="257.42" r="13.13"/>
    </g>
    <circle class="cls-7" cx="552.51" cy="524.27" r="21.77"/>
    <path class="cls-7" d="M533.32,557.67c1.31.51,2.1,3.43,2.56,4.46.11.24.99.26,1.11.73.93,3.63-.97,3.34-1.33,4.23-.25.6.1,1.72-.17,2.51-.13.37-4.94,4.58-5.28,4.65-1.08.24-4.22.24-5.3,0-.32-.07-4.57-3.71-4.82-4.44-.72-2.12-1.14-8.81.06-10.52.51-.73,4.95-2.53,6.05-2.56,1.31-.03,6.09.52,7.13.93Z"/>
    <path class="cls-6" d="M540.81,458.04c-2.16,10.27-7.88,19.5-16.46,25.63-3.48,2.74-6.17,6.07-6.3,10.62-.05,6.79-.09,14.45-4.84,19.77-4.44,5.44-10.55,6.13-17.04,6.43-5.87.24-3.85,6.54-3.26,11.13,2.05,11.82,4.92,22.72-1.52,33.8-7.27,14.05-26.96,17.64-37.35,4.95-8.22-8.57-4.92-22.27-9.48-21.81-2.2.4-4.4,2.62-6.42,3.82-3.56,2.46-7.64,3.76-11.88,3.86-7.34.98-14.61-7.32-18.24-3.89-1.38,1.18-2.2,3.92-3.49,6.78-5.83,14.12-24.01,19.3-35.59,8.95-6.68-5.38-9.01-14.35-8.86-22.66-.07-3.87-.72-7.48-2.54-10.86-7.38-11.92-8.02-13.53-7.15-27.79.46-7.52-6.51-5.79-11.71-5.47-4.72.28-9.61-.15-14.06-1.79-13.56-5.22-22.71-21.7-21.23-36.01.39-5.05,2.63-9.79,3.82-14.61,2.06-7.42-1.91-14.05-4.61-20.98-4.66-11.86-8.05-23.84-7.75-36.66.08-19.24,4.33-35.6,13.76-52.55,16.27-31.09,48.25-53.13,80.74-63.27,43.26-12.02,93.14-3.41,122.53,33.43,9.43,11.05,16.74,23.94,20.8,37.83,2.23,8.76,4.12,17.3,5.09,26.21,1.03,12.76-1.65,25.4-4.62,37.81-5.8,19.17,11.31,28.3,7.7,47.21l-.03.13Z"/>
    <path class="cls-4" d="M525.21,456.6c-1.57,4.96-4.16,10.4-8.98,13.02-2.78,1.61-6.32,2.14-8.84,4.18-6.93,5.92-3.54,15.08-2.27,22.61,1.29,5.21-2.98,12.71-8.57,8.01-5.89-5.51.4-13.41-1.38-19.88-2.74-10.37-10.85-5.92-14.23,1.19-5.45,11.2-5.72,23.85-4.5,36.18.79,11.92,12.36,35.73-4.57,40.39-14.93.31-11.43-19.88-9.28-29.41,1.05-6.75-2.03-19.66-7.84-23.62-10.25-6.36-20.04,3.01-19.53,13.75.1,3.86,1.09,7.03.19,10.67-1.35,5.84-8.48,10.91-13.86,6.41-6.51-5.49-2.53-14.76-4.1-22-2.91-12.45-16.05-12.2-22.05-2.31-4.75,6.61-4.14,15.42-2,22.99,1.83,8.01-1.28,22.95-12.34,18.97-7.15-3.31-7.74-11.97-4.97-18.51,1.88-6.05,3.95-16.86-4.76-18.36-4.56-.77-6.94-5-6.6-9.4.14-3.92,1.95-7.14,2.31-11.05.77-7.16-1.75-15.95-9.48-17.95-11.44-2.42-17.35,8.86-30.86-.79-7.11-4.23-8.05-12.49-6.9-19.86,1.29-7.62,9.4-14.28,5.79-22.22-1.65-4.17-3.02-8.47-4.97-12.54-3.02-6.45-6.4-11.92-7.83-19.1-2.7-17.32-1.38-35.27,4.92-51.59,11.82-28.77,38.3-50.94,66.46-62.86,3.69-1.72,8.14-2.37,11.89-3.28,3.22-1.03,6.44-2.14,9.99-2.68,13.73-2.04,28.22-2.81,41.7.56,8.51,2.37,17.87,3.63,24.84,9.71,8,4.98,17.32,9.23,23.79,16.52,9.44,10.64,17.69,25.64,21.99,38.87,1.17,3.39,1.07,7.21,1.75,10.69.56,3.03,1.7,5.48,1.82,8.67.09,5.73.51,12.39-1.12,17.97-.91,5.2-1.64,10.54-3.46,15.49-.79,3.2-2.47,6.45-2.86,9.89-.38,4.27,1.07,7.93,1.81,12.1.36,1.94.9,3.86,1.68,5.69,3.26,7.29,10.15,14.21,7.27,22.76l-.03.12Z"/>
    <path class="cls-6" d="M397.58,383.8c3.08,1.17,5.81,2.92,8.86,4.5,4.07,2.26,8.89,5.21,10.51,9.48,1.82,5.98,1.1,12.5-.77,18.44-2.46,7.11-5.51,13.78-10.34,19.2-3.28,3.75-6.91,6.59-11.2,8.57-3.81,2.02-8,4.04-12.29,4.83-4.63,1.09-9.29,1.77-14,.79-2.75-.55-5.59-1.01-7.81-2.71-8.74-6.9-9.57-11.94-9.44-22.94.09-4.35.4-9.33,1.43-13.02,2.68-9.44,11.25-19.19,20.31-24.41,5.43-3.12,18.8-4.77,24.62-2.77l.11.04Z"/>
    <path class="cls-6" d="M483.99,394.58c8.07,1.79,15.34,8.21,17.51,16.36,1.37,4.71,1.45,9.68,1.45,14.58-.05,5.87-.83,11.05-4.89,14.7-9.7,7.45-25.65,4.16-33.83-4.13-7.04-7.07-13.15-16.05-13.99-26.16-.54-7.03,2.09-14.1,8.98-16.82,4.09-1.65,8.71-1.28,13.09-.62,4.14.56,8,1.21,11.56,2.05l.13.03Z"/>
    <path class="cls-6" d="M440.26,425.12c3.43,2.02,5.1,6.19,6.92,9.64,2.18,4.29,4.65,9.55,6.55,14.23,2.47,5.96,4.59,13,1.07,18.88-1.86,3.16-5.9,4.63-9.17,2.82-3.21-1.4-5.78-6.59-9.53-6.33-3.25.6-4.86,4.08-7.63,6.16-2.79,2.33-7.04,2.92-10,.59-6.48-5.68-2.39-15.61.47-22.26,2.01-4.78,4.23-9.5,6.87-14.02,2.75-5.06,7.62-13.24,14.34-9.76l.1.06Z"/>
    <path class="cls-6" d="M339.26,360.36c1.77,1.73,2.61,5.72,3.2,8.66,1.23,7.08,2.38,14.23.13,20.14-1.81,4.33-4.67,8.98-6.47,13.44-.93,2.22-1.29,4.85-2.21,7.02-.32.75-.64,1.21-.92,1.17-.32-.03-.55-.73-.66-1.91-.12-1.49-.07-3.24-.07-4.78-.13-4.4.89-8.12,2.71-11.91,1.38-2.81,1.63-5.98,2.28-9,.58-2.46,1.37-3.36,1.38-6.38.01-3.85,0-10.92,0-14.5,0-1.48.2-2.13.59-1.96l.04.02Z"/>
    <path class="cls-6" d="M504.38,357.52c1.34,3.21,1.64,8.61,2.25,12.73.68,5.04,1.81,9.82,3.63,14.9,1.71,4.39,9.73,25.46-.41,10.68-6.39-9.52-10.93-18.78-9.75-30.64.13-2.43.76-6.6,1.76-8.07.83-1.32,1.8-1.21,2.49.33l.03.07Z"/>
    <path class="cls-6" d="M476.02,469.84c.8,2.44-1.53,1.98-1.98,3.27-.82,2.34-1.63,4.83-2.29,7.39l-2.03,2.65c-.45-2.04.12-5.91.75-7.87.19-.61,1.07-.57,1.29-1.08,1.1-2.52-.05-4.59,4.25-4.36Z"/>
    <path class="cls-6" d="M432.56,509.09c.24,2.7.98,4.13.21,6.89-.35,1.24.21,1.83-1.6,1.52.2-2.35-.3-5.08,0-7.37.12-.96.49-2.17,1.4-1.04Z"/>
    <path class="cls-6" d="M394,505.59c.19,2.94-.11,6.1-2.79,7.7-.22-2.24.14-4.28,1.07-6.31.49-1.05-.1-1.73,1.72-1.39Z"/>
    <path class="cls-6" d="M467.42,313.75c.18.08.17,1.04.67,1.16,1.13.27,3.65-.7,3.72.71-1.78-.2-4.19.41-5.83-.11-2.2-.7-1.46-3.06,1.44-1.75Z"/>
    <path class="cls-6" d="M358.25,387.12c.96,1.09-2.88,5-3.5,4.2-.95-1.22,2.93-4.84,3.5-4.2Z"/>
    <path class="cls-6" d="M469.71,483.86c.22.25-.12,2.71,0,3.51-3.93,1.35-1.14-4.83,0-3.51Z"/>
    <path class="cls-6" d="M443.08,339.45c-.25-.22-1.74-.17-2.1-1.05-.87-2.13,1.07-1.94,1.94-.84.44.57.06,1.78.16,1.89.14.14,1.6-.24,2.26.03s.55,1.24,1.04,1.36c1.62.4,4.89-.87,5.82.71-2.49-.06-6.32.24-8.6-.71-.85-.35-.43-1.31-.51-1.38Z"/>
    <circle class="cls-7" cx="527.02" cy="563.97" r="12.26"/>
    <path class="cls-8" d="M364.1,491.3c.13.78.25,1.57.36,2.35-.09-.64-.17-1.28-.26-1.92.62,4.9.61,9.82-.04,14.71l.26-1.92c-.32,2.28-1.03,4.63-1.03,6.93,0,3.42,1.88,6.78,4.85,8.51,2.55,1.49,5.59,1.85,8.42,1.05,3-.85,5.14-2.94,6.9-5.39,1.03-1.44,1.18-3.92.73-5.56s-1.75-3.49-3.32-4.31c-3.73-1.97-7.52-.7-9.87,2.59.77-.94.91-1.14.41-.58-.55.5-.35.36.59-.41-.65.37-.41.29.72-.24-.24.08-.48.13-.72.16l1.92-.26c-.33.02-.62.01-.95-.03l1.92.26c-.71-.18-.43-.04.82.43-.45-.27-.38-.19.21.22.52.33.93.78,1.22,1.35.45,1.31.58,1.56.37.74l.26,1.92c-.03-.45-.02-.84.03-1.29l-.26,1.92c.71-4.14,1.38-8.26,1.46-12.47.08-4.22-.37-8.42-1.08-12.58-.29-1.68-1.9-3.48-3.32-4.31-1.55-.9-3.83-1.29-5.56-.73-4.02,1.3-5.72,4.88-5.04,8.87h0Z"/>
    <path class="cls-8" d="M412.81,515.65c.33,4.34.62,8.69,1,13.03.44,4.93,1.06,9.8,4.89,13.31s9.39,3.61,13.74,1.17c4.83-2.71,6.4-7.96,6.79-13.13.35-4.67-4.23-8.66-8.66-8.66-4.98,0-8.31,3.98-8.66,8.66-.15,2.1,1.58,1.26,5.2-2.51l3.82,2.23c.86.78.44,1.48.18-1.07-.15-1.44-.22-2.9-.33-4.34l-.67-8.69c-.36-4.66-3.72-8.66-8.66-8.66-4.41,0-9.02,3.97-8.66,8.66h0Z"/>
    <path class="cls-8" d="M457.49,553.76c1.52,5.74,4.54,10.89,11.08,11.38,6.08.45,11.68-3.68,13.82-9.17,5.61-14.43-5.57-26.39-2.92-40.8,2-10.89-14.68-15.56-16.7-4.6-1.38,7.51-1.07,15.19.56,22.66.73,3.33,2.63,6.34,3.3,9.65.34,1.66-.16,3.26.1,4.84-1.61,2.95-.41,3.84,3.6,2.66,3.68,1.54,4.96,1.13,3.85-1.23-2.85-10.76-19.56-6.2-16.7,4.6h0Z"/>
    <path class="cls-8" d="M489.12,496.34c.31,3.04.5,6.29,2.14,8.98,1.04,1.71,2.67,3.23,4.43,4.16,2.84,1.51,6.92,1.91,9.62-.17,1.87-1.44,3.32-2.8,3.98-5.17.57-2.07.31-4.83-.87-6.67s-2.97-3.48-5.17-3.98c-2.1-.48-4.88-.51-6.67.87l-.23.17,2.07-.87-.28.07h4.6l-.37-.08c.69.29,1.38.58,2.07.87-.22-.1-.42-.23-.62-.37.58.45,1.17.9,1.75,1.35-.28-.22-.49-.41-.71-.69.45.58.9,1.17,1.35,1.75l-.17-.3.87,2.07c-.35-.84-.47-1.75-.6-2.64l.31,2.3c-.07-.56-.13-1.11-.18-1.67-.24-2.35-.81-4.39-2.54-6.12-1.5-1.5-3.97-2.63-6.12-2.54s-4.56.84-6.12,2.54c-1.46,1.59-2.76,3.87-2.54,6.12h0Z"/>
    <path class="cls-8" d="M321.14,448.77c-5.1,8.64-6.94,19.38-2.05,28.58s14.26,13.05,24.26,11.53c4.63-.7,7.18-6.52,6.05-10.65-1.36-4.95-6.01-6.75-10.65-6.05-2.53.38-4.41-2.49-4.97-4.5-1-3.61.49-7.09,2.3-10.17,5.67-9.62-9.29-18.34-14.95-8.74h0Z"/>
  </g>
</svg>