<?xml version="1.0" encoding="UTF-8"?>
<svg id="_Слой_1" xmlns="http://www.w3.org/2000/svg" version="1.1" xmlns:xlink="http://www.w3.org/1999/xlink" viewBox="0 0 64 64">
  <!-- Generator: Adobe Illustrator 30.5.0, SVG Export Plug-In . SVG Version: 2.1.3 Build 41)  -->
  <defs>
    <style>
      .st0 {
        fill: #151025;
      }

      .st1 {
        fill: #141023;
      }

      .st2 {
        fill: #140f22;
      }

      .st3 {
        fill: #ffea13;
      }

      .st4 {
        fill: #19132d;
      }

      .st5 {
        fill: #151024;
      }

      .st6 {
        fill: #fff;
      }

      .st7 {
        fill: #130f20;
      }

      .st8 {
        fill: #18122c;
      }

      .st9 {
        fill: none;
      }

      .st10 {
        fill: #130f21;
      }

      .st11 {
        fill: #161127;
      }

      .st12 {
        fill: #19132e;
      }

      .st13 {
        fill: #18122b;
      }

      .st14 {
        fill: #17122a;
      }

      .st15 {
        fill: #120e1e;
      }

      .st16 {
        fill: #171129;
      }

      .st17 {
        fill: #120e1f;
      }

      .st18 {
        clip-path: url(#clippath);
      }

      .st19 {
        fill: #161128;
      }
    </style>
    <clipPath id="clippath">
      <path class="st9" d="M25.8,53.6c-.8,0-1.6-.2-2.3-.5-2.2-.9-2.8-2.9-3.2-4.2-.3-.9-.5-1.5-.8-1.6,0,0-.2,0-.3,0-.3,0-.5.1-.6.3-.2.3-.3.6-.4.8-.4.8-.8,1.7-2.4,2.5-.7.3-1.4.5-2.2.5-2.8,0-4.7-2.3-6.1-4.3-.6-.9-1.2-1.8-1.6-2.7h0s0-.2,0-.2c-1.7-3.4-2.8-7.1-3.1-11h0c0-.1,0-.2,0-.2,0-.5,0-.9,0-1.3,0-.3,0-.5,0-.8s0-.5,0-.8c0-.5,0-.9,0-1.3v-.2s0,0,0,0c.4-4.8,2-9.5,4.6-13.6C12.5,6.6,21.8,1.6,32,1.6s21.8,6.2,26.6,16.2c2,4,3,8.5,2.9,13,0,.7,0,1.4,0,2.1-.2,3.1-.9,6-2,8.9v.3c0,0-.2,0-.2,0-.3.8-.7,1.6-1.2,2.3-.8,1.5-2.2,4-4.5,4s-.2,0-.3,0c-2.1-.2-2.7-1.8-3-2.8-.4-1-.4-1-.7-1,0,0,0,0-.1,0-.6,0-.9.7-1.6,2.4-.6,1.6-1.3,3.4-3.1,4-.5.2-.9.2-1.3.2-1.3,0-3.1-.7-4-4.2,0-.4-.2-.7-.2-1.1-.3-1.8-.6-2.8-1.7-3.2-.3-.1-.6-.2-.8-.2-1.7,0-3,2.9-4,5-.4.9-.8,1.8-1.2,2.4-1.5,2.4-3.6,3.7-5.9,3.7Z"/>
    </clipPath>
  </defs>
  <g class="st18">
    <rect class="st15" x="2.4" y="1.6" width="59.1" height="52"/>
    <circle class="st15" cx="32" cy="27.6" r="27.8"/>
    <circle class="st17" cx="32" cy="27.6" r="26.1"/>
    <circle class="st7" cx="32" cy="27.6" r="24.4"/>
    <circle class="st10" cx="32" cy="27.6" r="22.6"/>
    <circle class="st2" cx="32" cy="27.6" r="20.9"/>
    <circle class="st1" cx="32" cy="27.6" r="19.2"/>
    <circle class="st5" cx="32" cy="27.6" r="17.4"/>
    <circle class="st0" cx="32" cy="27.6" r="15.7"/>
    <circle class="st11" cx="32" cy="27.6" r="14"/>
    <circle class="st19" cx="32" cy="27.6" r="12.2"/>
    <circle class="st16" cx="32" cy="27.6" r="10.5"/>
    <circle class="st14" cx="32" cy="27.6" r="8.8"/>
    <circle class="st13" cx="32" cy="27.6" r="7"/>
    <circle class="st8" cx="32" cy="27.6" r="5.3"/>
    <circle class="st4" cx="32" cy="27.6" r="3.6"/>
    <circle class="st12" cx="32" cy="27.6" r="1.8"/>
  </g>
  <path class="st5" d="M32,3c10.2,0,20.4,5.2,25.4,15.4,1.9,3.9,2.8,8.1,2.8,12.3,0,.7,0,1.3,0,2-.2,2.9-.8,5.8-1.9,8.5,0,0,0,0,0,0-.3.8-.7,1.6-1.2,2.4-.6,1.1-1.8,3.3-3.3,3.3s0,0-.1,0c-2.4-.2-1.3-3.6-3.7-3.9,0,0-.2,0-.2,0-3,0-2.6,5.6-5.1,6.5-.3.1-.6.2-.9.2-1.5,0-2.2-1.7-2.6-3.1-.5-2-.5-4.4-2.8-5.3-.5-.2-.9-.3-1.3-.3-3.4,0-5,5.8-6.4,8.1-1.1,1.7-2.8,3-4.7,3s-1.2-.1-1.8-.4c-3-1.3-1.9-4.9-4-5.9-.3-.1-.6-.2-.9-.2-.7,0-1.4.3-1.8,1-.8,1.3-.6,2-2.2,2.7-.6.2-1.1.4-1.6.4-2.1,0-3.8-2-5-3.7-.6-.9-1.1-1.8-1.6-2.7,0,0,0,0,0,0-1.7-3.3-2.6-6.9-2.9-10.5,0,0,0,0,0-.1,0-.4,0-.9,0-1.3,0-.2,0-.5,0-.7s0-.5,0-.7c0-.4,0-.9,0-1.3,0,0,0,0,0-.1.3-4.6,1.8-9.1,4.4-13C13.8,7.2,22.9,3,32,3M32,.2h0c-10.7,0-20.5,5.2-26.1,13.8-2.7,4.2-4.4,9-4.8,14.1h0c0,0,0,.4,0,.4,0,.5,0,1,0,1.4,0,.2,0,.5,0,.8s0,.5,0,.8c0,.5,0,.9,0,1.4v.2s0,.1,0,.1c.3,4,1.4,7.9,3.2,11.4l.2.4h0c.5.9,1,1.8,1.6,2.6,1,1.5,3.5,4.9,7.3,4.9s1.8-.2,2.7-.6c1.6-.7,2.3-1.6,2.7-2.4.5,1.5,1.3,3.7,3.9,4.8.9.4,1.9.6,2.9.6,2.7,0,5.3-1.6,7.1-4.4.5-.7.9-1.7,1.3-2.6,1.3-2.8,2.2-4.2,2.7-4.2,0,0,.1,0,.3,0,.4.1.5.6.8,2.2,0,.4.2.8.2,1.2,1.1,4.6,3.8,5.3,5.3,5.3s1.2-.1,1.8-.3c2.4-.8,3.3-3.2,3.9-4.9,0-.1,0-.2.1-.3.5,1.1,1.6,2.6,3.8,2.7.1,0,.3,0,.4,0,3.1,0,4.9-3.1,5.7-4.7h0c.5-.9.9-1.8,1.3-2.6,0-.1.1-.2.1-.4,1.2-2.9,1.9-6,2.1-9.2,0-.8,0-1.5,0-2.2,0-4.6-1-9.3-3.1-13.6C54.8,6.7,44.1.2,32,.2h0Z"/>
  <g>
    <path class="st3" d="M30.6,62.4c-2.3,0-4.2-1.9-4.2-4.2s1.9-4.2,4.2-4.2,4.2,1.9,4.2,4.2-1.9,4.2-4.2,4.2Z"/>
    <path class="st5" d="M30.6,55.4c1.5,0,2.8,1.2,2.8,2.8s-1.2,2.8-2.8,2.8-2.8-1.2-2.8-2.8,1.2-2.8,2.8-2.8M30.6,52.6c-3.1,0-5.6,2.5-5.6,5.6s2.5,5.6,5.6,5.6,5.6-2.5,5.6-5.6-2.5-5.6-5.6-5.6h0Z"/>
  </g>
  <g>
    <path class="st3" d="M43.3,57.3c-1.9,0-3.4-1.5-3.4-3.4s1.5-3.4,3.4-3.4,3.4,1.5,3.4,3.4-1.5,3.4-3.4,3.4Z"/>
    <path class="st5" d="M43.3,51.9c1.1,0,2,.9,2,2s-.9,2-2,2-2-.9-2-2,.9-2,2-2M43.3,49.1c-2.7,0-4.8,2.2-4.8,4.8s2.2,4.8,4.8,4.8,4.8-2.2,4.8-4.8-2.2-4.8-4.8-4.8h0Z"/>
  </g>
  <g>
    <path class="st5" d="M25.5,23.7c-.1,1.1-.3,2.1-.5,3-.4,1.9-1,3.3-1.8,4.4-.9,1.1-1.9,1.7-3.2,1.7s-.2,0-.3,0c-1.4-.2-2.2-.9-2.8-2.1-.5-1.1-.7-2.7-.6-4.6,0-1,.2-2,.4-3.1.2-1.2.5-2.4.9-3.5.7-1.9,1.9-4.4,4-5.5.2-.1.4-.2.7-.2s.7.1.9.3c1.7,1.4,2.2,4,2.3,6,0,1.1,0,2.3-.1,3.6Z"/>
    <path class="st5" d="M47,30.6c-.5,1.2-1.4,1.9-2.8,2.1,0,0-.2,0-.3,0-1.3,0-2.4-.5-3.2-1.7-.8-1-1.3-2.5-1.8-4.4-.2-.9-.4-1.9-.5-3-.1-1.2-.2-2.4-.1-3.5.1-2,.6-4.6,2.3-6,.2-.2.6-.3.9-.3s.5,0,.7.2c2.1,1,3.3,3.5,4,5.5.4,1.1.7,2.3.9,3.5.2,1.1.3,2.1.4,3.1.1,2,0,3.5-.6,4.6Z"/>
  </g>
  <ellipse class="st6" cx="30.6" cy="58.2" rx="2.8" ry="2.8"/>
  <ellipse class="st6" cx="43.3" cy="53.9" rx="2" ry="2"/>
  <path class="st6" d="M57.3,18.4C48-.8,19.9-2.3,8.3,15.6c-2.5,3.9-4,8.4-4.4,13,0,0,0,0,0,.1,0,.4,0,.9,0,1.3,0,.2,0,.5,0,.7s0,.5,0,.7c0,.4,0,.9,0,1.3h0s0,0,0,.1c.3,3.6,1.3,7.2,2.9,10.5,0,0,0,0,0,0,.5.9,1,1.8,1.6,2.7,1.5,2.1,3.6,4.7,6.6,3.4,1.6-.7,1.4-1.4,2.2-2.7.5-.9,1.8-1.2,2.7-.8,2.1,1,1,4.6,4,5.9,2.7,1.1,5.1-.5,6.5-2.7,1.6-2.6,3.4-9.6,7.7-7.9,2.3.9,2.3,3.3,2.8,5.3.4,1.7,1.3,3.7,3.5,3,2.6-.9,2-6.8,5.3-6.5,2.4.2,1.4,3.7,3.7,3.9,1.6.1,2.8-2.1,3.4-3.3.4-.8.8-1.6,1.2-2.4,0,0,0,0,0,0,1.1-2.7,1.7-5.6,1.9-8.5,0-.7,0-1.3,0-2,0-4.2-.9-8.4-2.8-12.3ZM27.7,23.9c-.1,1-.3,2.2-.5,3.4-.8,3.8-2.7,7.9-7.2,7.9s-.3,0-.5,0h0c-4.8-.7-5.5-5.3-5.3-9.2,0-1.3.2-2.5.4-3.5.2-1.2.5-2.6,1-4,1-2.8,2.6-5.6,5.2-6.9.5-.2,1.1-.4,1.6-.4.8,0,1.6.3,2.2.8,2.2,1.8,3,4.9,3.2,7.8,0,1.5,0,2.9-.1,4.1ZM44.5,35.3h0c-.2,0-.3,0-.5,0-4.5,0-6.4-4.2-7.2-7.9-.3-1.2-.4-2.5-.5-3.4-.1-1.2-.2-2.6-.1-4.1.2-2.9,1-6,3.2-7.8.6-.5,1.4-.8,2.2-.8s1.1.1,1.6.4c2.6,1.3,4.2,4.1,5.2,6.9.5,1.4.8,2.8,1,4,.2,1,.3,2.2.4,3.5.2,3.9-.5,8.5-5.3,9.2Z"/>
</svg>