<?xml version="1.0" encoding="UTF-8"?>
<svg id="_Слой_1" xmlns="http://www.w3.org/2000/svg" version="1.1" viewBox="0 0 96 96">
  <!-- Generator: Adobe Illustrator 30.5.0, SVG Export Plug-In . SVG Version: 2.1.3 Build 41)  -->
  <defs>
    <style>
      .st0 {
        fill: #ffea13;
      }

      .st1 {
        fill: #fff;
      }
    </style>
  </defs>
  <g>
    <path class="st0" d="M36.9,34.2c-.2,1.9-.5,3.5-.8,5-.7,3.1-1.7,5.5-3,7.2-1.5,1.9-3.2,2.8-5.5,2.8s-.3,0-.4,0c-2.4-.4-3.8-1.4-4.7-3.5-.8-1.9-1.2-4.5-1-7.7,0-1.6.3-3.3.6-5.1.3-2,.9-4,1.5-5.8,1.1-3.2,3.2-7.3,6.8-9.1.4-.2.8-.3,1.2-.3s1.2.2,1.6.5c2.9,2.3,3.7,6.7,3.9,10,.1,1.8,0,3.8-.2,5.9Z"/>
    <path class="st0" d="M73.6,45.7c-.9,2-2.4,3.1-4.7,3.5-.1,0-.3,0-.4,0-2.3,0-4-.9-5.5-2.8-1.3-1.7-2.3-4.1-3-7.2-.3-1.5-.6-3.1-.8-5-.2-2.1-.3-4-.2-5.9.2-3.3,1-7.7,3.9-10,.4-.3,1-.5,1.6-.5s.8,0,1.2.3c3.6,1.7,5.7,5.9,6.8,9.1.6,1.8,1.1,3.8,1.5,5.8.3,1.8.5,3.5.6,5.1.2,3.2-.1,5.8-1,7.7Z"/>
  </g>
  <ellipse class="st1" cx="45.6" cy="91.4" rx="4.7" ry="4.6"/>
  <ellipse class="st1" cx="67.3" cy="84.3" rx="3.4" ry="3.3"/>
  <path class="st1" d="M91.2,25.5C75.3-6.4,27.3-8.8,7.6,20.8,3.3,27.3.7,34.8.1,42.4c0,0,0,.1,0,.2,0,.7,0,1.4,0,2.2C0,45.1,0,45.5,0,45.9s0,.8,0,1.2c0,.7,0,1.4,0,2.2H.1c0,0,0,.1,0,.2.5,6,2.2,12,5,17.4,0,0,0,0,0,0,.8,1.5,1.8,3,2.8,4.4,2.5,3.5,6.2,7.7,11.2,5.6,2.7-1.2,2.5-2.4,3.8-4.5.9-1.5,3-2,4.6-1.3,3.6,1.6,1.7,7.6,6.8,9.7,4.6,1.9,8.6-.8,11-4.4,2.8-4.3,5.7-15.8,13.2-13,3.9,1.5,4,5.5,4.8,8.8.7,2.8,2.2,6.2,5.9,4.9,4.4-1.5,3.5-11.2,9.1-10.7,4.2.4,2.3,6.1,6.3,6.4,2.7.2,4.7-3.5,5.9-5.4.8-1.3,1.4-2.6,2-4,0,0,0,0,0-.1,1.9-4.5,3-9.3,3.3-14.1,0-1.1.1-2.2.1-3.3,0-7-1.5-14-4.8-20.4ZM40.6,34.6c-.2,1.6-.4,3.6-.9,5.7-1.4,6.2-4.6,13.2-12.3,13.2s-.5,0-.8,0h0c-8.2-1.1-9.4-8.7-9-15.3.1-2.1.4-4.1.7-5.8.3-2,.9-4.3,1.7-6.7,1.6-4.6,4.4-9.3,8.9-11.5.9-.4,1.8-.6,2.7-.6,1.4,0,2.7.4,3.7,1.3,3.8,3,5.1,8.1,5.4,12.9.2,2.5,0,4.8-.2,6.8ZM69.4,53.4h0c-.3,0-.5,0-.8,0-7.7,0-10.9-6.9-12.3-13.2-.5-2.1-.7-4.1-.9-5.7-.2-2-.4-4.3-.2-6.8.3-4.8,1.6-9.9,5.4-12.9,1-.8,2.4-1.3,3.7-1.3s1.9.2,2.7.6c4.5,2.2,7.2,6.9,8.9,11.5.8,2.4,1.4,4.7,1.7,6.7.3,1.6.6,3.7.7,5.8.4,6.5-.8,14.1-9,15.3Z"/>
</svg>