<?xml version="1.0" encoding="UTF-8"?>
<svg id="_Слой_2" xmlns="http://www.w3.org/2000/svg" version="1.1" viewBox="0 0 235.3 74.3">
  <!-- Generator: Adobe Illustrator 30.5.0, SVG Export Plug-In . SVG Version: 2.1.3 Build 41)  -->
  <defs>
    <style>
      .st0 {
        fill: #ffea13;
      }

      .st1 {
        fill: #fff;
      }

      .st2 {
        fill: #f8f8f8;
      }
    </style>
  </defs>
  <g>
    <path class="st0" d="M27.9,28.9c-.1,1.4-.3,2.6-.6,3.7-.5,2.3-1.2,4.1-2.1,5.3-1,1.4-2.3,2-3.9,2s-.2,0-.3,0c-1.7-.3-2.7-1-3.4-2.6-.6-1.4-.8-3.3-.7-5.7,0-1.2.2-2.4.4-3.7.2-1.5.6-2.9,1.1-4.3.8-2.3,2.3-5.4,4.8-6.7.3-.1.5-.2.8-.2s.8.1,1.1.4c2.1,1.7,2.7,4.9,2.8,7.3,0,1.3,0,2.8-.1,4.3Z"/>
    <path class="st0" d="M54.1,37.4c-.7,1.5-1.7,2.3-3.4,2.6-.1,0-.2,0-.3,0-1.6,0-2.9-.6-3.9-2-.9-1.2-1.6-3-2.1-5.3-.2-1.1-.4-2.3-.6-3.7-.2-1.5-.2-3-.1-4.3.1-2.4.7-5.6,2.8-7.3.3-.2.7-.4,1.1-.4s.6,0,.8.2c2.5,1.3,4,4.3,4.8,6.7.5,1.3.8,2.8,1.1,4.3.2,1.3.4,2.6.4,3.7.1,2.4,0,4.3-.7,5.7Z"/>
  </g>
  <ellipse class="st1" cx="34.2" cy="71" rx="3.4" ry="3.4"/>
  <ellipse class="st1" cx="49.6" cy="65.7" rx="2.4" ry="2.4"/>
  <path class="st2" d="M66.7,22.5C55.3-.9,21-2.7,7,19.1c-3.1,4.8-4.9,10.3-5.3,15.8,0,0,0,.1,0,.2,0,.5,0,1.1,0,1.6,0,.3,0,.6,0,.9s0,.6,0,.9c0,.5,0,1.1,0,1.6h0c0,0,0,.1,0,.2.3,4.4,1.5,8.8,3.6,12.8,0,0,0,0,0,0,.6,1.1,1.3,2.2,2,3.3,1.8,2.6,4.4,5.7,8,4.1,1.9-.9,1.8-1.8,2.7-3.3.7-1.1,2.2-1.5,3.3-.9,2.6,1.2,1.2,5.6,4.8,7.1,3.2,1.4,6.2-.6,7.9-3.2,2-3.1,4.1-11.6,9.4-9.6,2.8,1.1,2.8,4.1,3.4,6.5.5,2.1,1.6,4.5,4.2,3.6,3.1-1.1,2.5-8.2,6.5-7.9,3,.3,1.7,4.5,4.5,4.7,1.9.2,3.4-2.5,4.2-4,.5-1,1-1.9,1.4-2.9,0,0,0,0,0,0,1.3-3.3,2.1-6.8,2.4-10.3,0-.8,0-1.6,0-2.5,0-5.1-1.1-10.3-3.4-15ZM30.6,29.2c-.1,1.2-.3,2.7-.7,4.2-1,4.6-3.3,9.7-8.8,9.7s-.4,0-.6,0h0c-5.8-.8-6.7-6.4-6.4-11.2,0-1.6.3-3,.5-4.2.2-1.5.6-3.2,1.2-4.9,1.2-3.4,3.1-6.8,6.3-8.4.6-.3,1.3-.4,1.9-.4,1,0,1.9.3,2.7.9,2.7,2.2,3.7,6,3.9,9.5.1,1.8,0,3.5-.1,5ZM51.1,43h0c-.2,0-.4,0-.6,0-5.5,0-7.8-5.1-8.8-9.7-.3-1.5-.5-3-.7-4.2-.2-1.5-.3-3.2-.1-5,.2-3.5,1.2-7.3,3.9-9.5.7-.6,1.7-.9,2.7-.9s1.3.1,1.9.4c3.2,1.6,5.2,5.1,6.3,8.4.6,1.7,1,3.5,1.2,4.9.2,1.2.4,2.7.5,4.2.3,4.8-.6,10.4-6.4,11.2Z"/>
  <g>
    <path class="st2" d="M83.7,53.1l-9.9-35.5h10.4l3.9,22.7,3.8-22.7h10.3l-9.8,35.5h-8.7Z"/>
    <path class="st2" d="M105.3,41.4v-13.3c0-1.7.3-3.2.9-4.7.6-1.4,1.5-2.7,2.5-3.8,1.1-1.1,2.3-2,3.8-2.6,1.4-.6,3-1,4.6-1h3.1c1.8,0,3.5.3,5,1,1.5.7,2.9,1.6,4,2.8,1.1,1.2,2,2.5,2.7,4.1.7,1.6,1,3.2,1,5v9h-18.4v2.3c0,1.4.2,2.6.7,3.7.5,1,1.4,1.5,2.6,1.5h2.5c.8,0,1.5-.2,2.2-.6.7-.4,1.2-1,1.6-1.7h8.4c-.3,1.4-.8,2.7-1.5,4-.7,1.2-1.6,2.3-2.7,3.2-1.1.9-2.3,1.6-3.7,2.1-1.4.5-2.8.8-4.4.8h-3.1c-1.6,0-3.1-.3-4.6-.9-1.4-.6-2.7-1.5-3.8-2.5s-1.9-2.3-2.5-3.8c-.6-1.4-.9-3-.9-4.6ZM114.5,30.9h8.7v-1.7c0-1.4-.3-2.7-1-3.8-.7-1.1-1.6-1.7-2.9-1.7h-1c-1.2,0-2.2.6-2.8,1.7-.7,1.1-1,2.4-1,3.8v1.7Z"/>
    <path class="st2" d="M164,39.6v2.7c0,1.5-.2,3-.5,4.4-.4,1.4-1,2.7-1.8,3.9-.9,1.1-2,2-3.4,2.7-1.4.7-3.1,1-5.2,1s-3.5-.3-4.9-1c-1.4-.7-2.5-1.6-3.4-2.7-.9-1.1-1.5-2.4-2-3.9-.4-1.4-.6-2.9-.6-4.4v-20.2h-5.8v-7.1h5.8V2h9.5v12.9h9.8v8.8c-1.6-.4-3.2-.7-4.9-.9-1.6-.2-3.3-.4-4.9-.6v23.4c0,.5.2,1,.5,1.3s.8.5,1.3.5h.4c.5,0,1-.2,1.3-.5.4-.4.6-.8.6-1.3v-6.1h8.2Z"/>
    <path class="st2" d="M185,15.9c1.8,0,3.6.4,5.2,1.1,1.6.7,3,1.7,4.2,2.9s2.2,2.6,2.8,4.3c.7,1.6,1,3.4,1,5.2v10.6c0,1.8-.3,3.5-1,5.1-.6,1.6-1.5,3-2.7,4.2-1.1,1.2-2.5,2.1-4,2.9-1.5.7-3.2,1.1-5,1.2h-3.2c-1.8,0-3.6-.3-5.2-1-1.6-.7-3-1.6-4.2-2.8s-2.2-2.6-2.8-4.3c-.7-1.6-1-3.4-1-5.3v-10.6c0-1.8.3-3.5,1-5,.6-1.6,1.5-2.9,2.7-4.2,1.1-1.2,2.5-2.2,4-2.9,1.5-.7,3.2-1.1,4.9-1.2h3.2ZM189.8,29.5c0-.2,0-.4,0-.5,0-.1,0-.3,0-.5v-.3s0-.1-.1-.2c-.2-1.1-.8-2-1.6-2.8-.8-.8-1.8-1.2-3-1.2h-2.6c-.8,0-1.4.2-2,.5-.6.3-1.1.8-1.5,1.3-.4.5-.7,1.1-.9,1.8-.2.7-.3,1.3-.3,2v10.1c0,.2,0,.4,0,.5,0,.1,0,.3.1.5v.3s0,0,0,.1h0c.2,1.2.8,2.2,1.6,2.9.8.8,1.8,1.2,3,1.2h2.6c.7,0,1.4-.2,2-.5.6-.3,1.1-.8,1.5-1.3.4-.5.7-1.1.9-1.8.2-.7.3-1.3.3-2v-10.1Z"/>
    <path class="st2" d="M224.1,16.6v8.4c-1.4-.4-2.7-.7-3.9-1-1.2-.3-2.4-.4-3.5-.4s-2.5.2-3.8.7v28.8h-8.4V15.6h8.4v3.2c1.8-.7,3.6-1.3,5.5-1.6,1.9-.4,3.8-.6,5.7-.6Z"/>
  </g>
  <path class="st2" d="M83.1,65.8c-.1.2-.2.3-.4.4s-.3.2-.5.2c-.2,0-.4,0-.7,0-.5,0-.8,0-1.1-.3-.3-.2-.5-.5-.7-.8-.2-.3-.2-.7-.2-1.1s0-.8.2-1.1c.2-.3.4-.6.7-.8s.7-.3,1.1-.3.5,0,.6,0,.4.1.5.2.3.2.4.4.2.3.2.5l1.8-.3c0-.3-.2-.6-.5-.9-.2-.3-.5-.5-.8-.7-.3-.2-.7-.3-1.1-.4-.4,0-.8-.2-1.3-.2-.8,0-1.5.2-2.1.4s-1.1.7-1.4,1.2c-.3.5-.5,1.1-.5,1.9s.2,1.3.5,1.8.8.9,1.4,1.2c.6.3,1.3.4,2.1.4s.9,0,1.3-.2.8-.2,1.1-.4.6-.4.8-.7.4-.6.5-.9l-1.8-.3c0,.2-.1.3-.2.5h0Z"/>
  <polygon class="st2" points="87.8 62.1 90.4 62.1 90.4 67.6 92.4 67.6 92.4 62.1 95.1 62.1 95.1 60.8 87.8 60.8 87.8 62.1"/>
  <path class="st2" d="M102.3,64.5c-.2.4-.3.9-.5,1.3,0,.2,0,.3-.1.5,0-.2,0-.3-.1-.5-.1-.4-.3-.9-.4-1.3l-1.5-3.7h-2.1l3.2,6.9v.4c-.2.3-.3.5-.5.6-.2.1-.3.2-.6.2s-.5,0-.8,0h-.2s-.5,1.2-.5,1.2c.1,0,.3,0,.5.1s.5,0,.8,0c.5,0,.9,0,1.3-.2s.7-.3.9-.6.5-.6.6-.9l3.6-7.7h-2.1l-1.6,3.7h0Z"/>
  <path class="st2" d="M115.7,60.8h-6l-.2,2.4c0,.4,0,.7-.1,1.1s-.1.6-.2.9c0,.3-.2.5-.3.7-.1.2-.3.3-.5.5h-.7v3.3h1.9v-2h5.5v2h1.9v-3.3h-1.3v-5.5h0ZM113.8,66.3h-3.5c.3-.3.5-.7.6-1.2.1-.5.2-1.1.3-1.9v-1.1h2.6v4.2h0Z"/>
  <polygon class="st2" points="122.1 65.1 122 65.1 122 60.8 120.1 60.8 120.1 67.6 121.8 67.6 125.4 63.3 125.5 63.3 125.5 67.6 127.4 67.6 127.4 60.8 125.7 60.8 122.1 65.1"/>
  <path class="st2" d="M131.7,61.4c-.6.4-.9,1-.9,1.6s.3,1.2.9,1.6c.2.2.5.3.8.3l-2,2.6h2.1l1.8-2.4h1.6v2.4h1.9v-6.8h-3.7c-1.1,0-1.9.2-2.5.6h0ZM136.1,62.1v2h-1.6c-.6,0-1,0-1.3-.3s-.4-.4-.4-.7.1-.6.4-.7.7-.3,1.3-.3h1.6Z"/>
  <path class="st2" d="M154.7,60.8h-6l-.2,2.4c0,.4,0,.7-.1,1.1s-.1.6-.2.9c0,.3-.2.5-.3.7-.1.2-.3.3-.5.5h-.7v3.3h1.9v-2h5.5v2h1.9v-3.3h-1.3v-5.5h0ZM152.9,66.3h-3.5c.3-.3.5-.7.6-1.2.1-.5.2-1.1.3-1.9v-1.1h2.6v4.2h0Z"/>
  <polygon class="st2" points="161.2 65.1 161.1 65.1 161.1 60.8 159.1 60.8 159.1 67.6 160.8 67.6 164.4 63.3 164.5 63.3 164.5 67.6 166.5 67.6 166.5 60.8 164.7 60.8 161.2 65.1"/>
  <path class="st2" d="M174.6,64.1h0c.5,0,.9-.2,1.2-.5.3-.2.5-.6.5-1s-.1-.7-.4-1-.6-.5-1-.7c-.5-.2-1-.3-1.6-.3s-1.1,0-1.6.3-.9.4-1.1.7-.4.6-.4,1h1.9c0-.2.1-.4.4-.6.3-.1.5-.2.9-.2s.6,0,.8.2.3.4.3.6-.1.5-.4.6-.6.2-1,.2h-.6v1h.6c.5,0,.8,0,1.1.2s.4.4.4.7-.1.5-.4.6c-.2.2-.6.3-1,.3s-.7,0-1-.2c-.3-.1-.4-.3-.4-.5h-1.9c0,.4.2.7.4,1s.7.5,1.1.7,1.1.3,1.7.3,1.2,0,1.8-.3.9-.4,1.2-.7c.3-.3.4-.6.4-1s-.2-.8-.5-1.1-.8-.5-1.5-.5h0Z"/>
  <path class="st2" d="M185.6,61.2c-.3-.2-.7-.3-1.1-.4s-.8-.1-1.2-.1-1.1,0-1.6.2c-.5.1-.9.3-1.2.6-.3.3-.6.6-.8,1l1.8.3c0-.2.2-.3.3-.4s.3-.2.6-.3.5-.1.8-.1.6,0,.8.1c.2,0,.4.2.5.4s.2.3.2.6h0c0,.2,0,.3-.2.4-.1,0-.4.1-.7.2-.3,0-.7,0-1.2.1-.4,0-.8,0-1.2.2-.4,0-.7.2-1,.3-.3.2-.5.3-.7.6-.2.3-.3.6-.3,1s.1.8.4,1.1.6.5,1,.7c.4.2.9.2,1.4.2s.8,0,1.1-.2.6-.2.8-.4c.2-.2.4-.3.5-.5h0v.9h1.9v-4.6c0-.5-.1-.8-.3-1.1s-.5-.5-.8-.7h0ZM184.8,65.2c0,.3,0,.5-.2.7-.2.2-.4.4-.7.5s-.6.2-1,.2-.5,0-.7-.1-.4-.2-.5-.3-.2-.3-.2-.5,0-.4.2-.5.3-.2.5-.3c.2,0,.5-.1.8-.2.1,0,.3,0,.5,0s.4,0,.6,0c.2,0,.4,0,.5,0s.3,0,.3-.1v.8h0Z"/>
  <path class="st1" d="M193,59.7c.4.2.8.2,1.2.2s.9,0,1.3-.2.7-.4.9-.7.3-.6.3-.9h-1.2c0,.3-.1.5-.3.6s-.5.3-.9.3-.7,0-.9-.3-.3-.4-.3-.6h-1.2c0,.3.1.6.3.9.2.3.5.5.9.7h0Z"/>
  <polygon class="st2" points="192.6 65.1 192.5 65.1 192.5 60.8 190.5 60.8 190.5 67.6 192.2 67.6 195.8 63.3 195.9 63.3 195.9 67.6 197.9 67.6 197.9 60.8 196.2 60.8 192.6 65.1"/>
  <polygon class="st2" points="207.1 63.5 203.7 63.5 203.7 60.8 201.7 60.8 201.7 67.6 203.7 67.6 203.7 64.8 207.1 64.8 207.1 67.6 209 67.6 209 60.8 207.1 60.8 207.1 63.5"/>
  <path class="st2" d="M219.3,61.9c-.2-.3-.5-.5-.8-.7s-.7-.3-1.1-.4-.8-.1-1.2-.1-1.1,0-1.6.2c-.5.1-.9.3-1.2.6-.3.3-.6.6-.8,1l1.8.3c0-.2.2-.3.3-.4s.3-.2.6-.3.5-.1.8-.1.6,0,.8.1c.2,0,.4.2.5.4s.2.3.2.6h0c0,.2,0,.3-.2.4-.1,0-.4.1-.7.2-.3,0-.7,0-1.2.1-.4,0-.8,0-1.2.2-.4,0-.7.2-1,.3-.3.2-.5.3-.7.6-.2.3-.3.6-.3,1s.1.8.4,1.1.6.5,1,.7c.4.2.9.2,1.4.2s.8,0,1.1-.2.6-.2.8-.4c.2-.2.4-.3.5-.5h0v.9h1.9v-4.6c0-.5-.1-.8-.3-1.1h0ZM217.7,65.2c0,.3,0,.5-.2.7-.2.2-.4.4-.7.5s-.6.2-1,.2-.5,0-.7-.1-.4-.2-.5-.3-.2-.3-.2-.5,0-.4.2-.5.3-.2.5-.3c.2,0,.5-.1.8-.2.1,0,.3,0,.5,0s.4,0,.6,0c.2,0,.4,0,.5,0s.3,0,.3-.1v.8h0Z"/>
</svg>